<svg width="31" height="39" viewBox="0 0 31 39" fill="none" xmlns="http://www.w3.org/2000/svg">
<path d="M10.5921 0.282078H19.7416C19.9687 0.282078 20.1726 0.466246 20.2454 0.742498L29.9802 38.0513C30.0938 38.4859 29.8375 38.9316 29.4764 38.9316H21.6752C21.4393 38.9316 21.2326 38.7327 21.1656 38.4454L19.762 32.2795C19.6979 31.9922 19.4883 31.7933 19.2524 31.7933H11.0347C10.7959 31.7933 10.5892 31.9922 10.5251 32.2831L9.1594 38.4417C9.09534 38.729 8.88567 38.9316 8.6498 38.9316H0.851458C0.49037 38.9316 0.237027 38.4859 0.347683 38.0513L10.0912 0.742498C10.164 0.469929 10.365 0.282078 10.595 0.282078H10.5921ZM17.0713 23.3068C17.4237 23.3068 17.677 22.8832 17.5809 22.4522L16.3637 17.034C16.1453 15.9953 15.8774 14.5772 15.6444 13.2991C15.5163 12.5956 14.7213 12.6103 14.6107 13.3175C14.4068 14.5919 14.1651 15.999 13.9263 17.034L12.7091 22.4522C12.613 22.8795 12.8664 23.3068 13.2187 23.3068H17.0713Z" fill="#17A550"/>
</svg>
